<?xml version="1.0" encoding="UTF-8"?>
<svg xmlns="http://www.w3.org/2000/svg" xmlns:xlink="http://www.w3.org/1999/xlink" width="193pt" height="193pt" viewBox="0 0 193 193" version="1.1">
<g id="surface1">
<path style=" stroke:none;fill-rule:evenodd;fill:rgb(100%,100%,100%);fill-opacity:1;" d="M 0 0.242188 L 192.757813 0.242188 L 192.757813 193 L 0 193 L 0 0.242188 "/>
<path style=" stroke:none;fill-rule:nonzero;fill:rgb(13.699341%,12.199402%,12.5%);fill-opacity:1;" d="M 8.992188 91.703125 L 37.472656 80.871094 C 37.472656 80.871094 38.742188 82.136719 39.363281 82.757813 C 42.734375 82.71875 46.265625 82.417969 48.433594 82.417969 C 49.207031 82.757813 50.941406 89.878906 48.433594 94.242188 C 49.546875 94.242188 37.226563 97.214844 37.226563 97.214844 L 32.210938 95.976563 C 32.210938 95.976563 12.957031 95.648438 12.027344 95.648438 C 6.703125 93.871094 8.992188 91.703125 8.992188 91.703125 "/>
<path style=" stroke:none;fill-rule:nonzero;fill:rgb(13.699341%,12.199402%,12.5%);fill-opacity:1;" d="M 45.894531 78.886719 C 45.894531 78.886719 46.332031 77.789063 46.992188 77.789063 C 47.652344 77.789063 50.945313 79.355469 51.960938 83.40625 C 53.253906 83.40625 71.898438 78.824219 71.898438 78.824219 C 71.898438 78.824219 77.84375 74.613281 79.019531 73.4375 C 80.191406 72.269531 77.285156 69.726563 77.285156 69.726563 L 74.808594 69.726563 C 74.808594 69.726563 78.921875 70.636719 77.964844 73.4375 C 77.007813 74.050781 72.03125 77.84375 72.03125 77.84375 L 72.269531 72.078125 L 71.277344 70.035156 L 69.421875 70.28125 C 69.421875 70.28125 73.027344 72.527344 70.472656 78.207031 C 69.648438 78.371094 51.910156 81.867188 53.199219 81.613281 C 51.820313 78.683594 48.679688 77.09375 48.679688 77.09375 L 51.960938 74.988281 L 60.691406 71.148438 L 64.097656 70.714844 L 71.652344 64.585938 L 73.695313 64.585938 L 73.695313 63.410156 L 71.339844 62.851563 L 81 52.511719 L 86.015625 53.132813 L 88.738281 61.242188 C 88.738281 61.242188 95.230469 59.433594 100.128906 61.117188 C 100.765625 61.117188 102.792969 60.621094 102.792969 60.621094 L 105.207031 61.550781 L 105.828125 63.347656 C 105.828125 63.347656 109.480469 64.710938 110.097656 65.328125 C 112.914063 64.363281 116.539063 66.011719 116.539063 66.011719 L 129.582031 44.453125 L 131.609375 44.519531 L 119.054688 66.589844 L 122.226563 67.601563 L 122.765625 68.816406 L 117.90625 71.851563 L 118.648438 73.339844 L 119.460938 73.066406 L 128.199219 77.726563 L 124.285156 82.042969 L 129.921875 83.058594 L 137.277344 78.128906 L 177.5 84 L 184.253906 92.425781 L 184.253906 92.5 L 126.445313 89.011719 L 126.445313 93.265625 C 126.445313 93.265625 125.464844 92.910156 125.464844 93.382813 C 125.128906 96.082031 128.875 97.703125 129.449219 99.929688 C 130.023438 100.503906 132.621094 97.027344 132.621094 97.027344 L 133.566406 96.890625 L 134.039063 97.90625 L 131.8125 101.144531 L 133.632813 103.4375 L 138.761719 95.40625 L 140.179688 96.082031 L 141.191406 101.617188 L 133.09375 121.324219 L 128.839844 126.183594 L 124.722656 128.476563 L 124.050781 127.800781 C 124.050781 127.800781 126.410156 124.96875 126.074219 121.929688 C 123.238281 115.585938 120.808594 114.84375 120.808594 114.84375 L 112.507813 116.867188 L 112.171875 119.027344 C 112.171875 119.027344 120.015625 113.265625 123.980469 119.972656 C 127.949219 126.679688 120.742188 129.960938 119.191406 131.515625 C 113.519531 135.96875 111.226563 131.785156 111.226563 131.785156 L 110.414063 131.785156 L 108.527344 130.300781 L 109.875 135.902344 L 106.839844 138.332031 L 103.195313 134.957031 L 100.15625 135.359375 L 99.214844 134.550781 L 88.347656 148.792969 L 76.535156 141.230469 L 92.398438 125.101563 L 92.867188 119.839844 L 98.875 111.066406 C 98.875 111.066406 96.003906 108.460938 96.714844 109.105469 C 94.691406 111.132813 91.789063 110.523438 91.789063 110.523438 L 87.671875 115.585938 L 75.996094 117.949219 L 71.746094 114.84375 L 83.691406 102.964844 L 80.652344 102.222656 L 77.210938 95.203125 L 82.679688 90.816406 L 82.542969 90.210938 L 80.046875 91.558594 L 76.335938 91.019531 C 76.335938 91.019531 65.132813 95.136719 64.589844 95.675781 C 63.511719 95.675781 64.050781 93.382813 64.050781 93.382813 L 72.691406 90.144531 L 69.988281 89.332031 L 59.191406 92.234375 L 57.976563 91.558594 L 57.707031 94.261719 L 56.628906 94.460938 L 55.882813 92.234375 L 55.074219 92.304688 L 53.996094 95.542969 L 53.183594 95.8125 L 52.171875 93.382813 C 52.171875 93.382813 49.269531 93.789063 50.148438 93.71875 C 52.914063 81.167969 45.894531 78.886719 45.894531 78.886719 "/>
<path style=" stroke:none;fill-rule:nonzero;fill:rgb(100%,100%,100%);fill-opacity:1;" d="M 100.496094 95.675781 C 100.898438 100.535156 99.886719 104.046875 99.886719 104.046875 L 102.148438 106.308594 L 108.460938 98.847656 L 109.875 98.847656 L 110.316406 98.410156 L 105.691406 94.867188 C 105.691406 94.867188 99.753906 95.675781 100.496094 95.675781 "/>
<path style=" stroke:none;fill-rule:nonzero;fill:rgb(100%,100%,100%);fill-opacity:1;" d="M 81.800781 81.84375 L 83.21875 79.816406 L 97.324219 84.742188 L 96.3125 86.429688 L 81.800781 81.84375 "/>
<path style=" stroke:none;fill-rule:nonzero;fill:rgb(100%,100%,100%);fill-opacity:1;" d="M 84.230469 65.847656 C 84.230469 65.847656 86.679688 62.566406 87.804688 63.148438 C 88.933594 63.730469 94.828125 66.792969 95.90625 67.195313 C 96.984375 67.601563 96.242188 72.867188 96.242188 72.867188 C 96.242188 72.867188 96.488281 69.289063 90.304688 67.871094 C 86.324219 65.710938 84.230469 65.847656 84.230469 65.847656 "/>
<path style=" stroke:none;fill-rule:nonzero;fill:rgb(100%,100%,100%);fill-opacity:1;" d="M 108.660156 103.640625 L 109.671875 104.179688 C 109.671875 104.179688 112.304688 102.222656 112.777344 102.222656 C 113.25 102.222656 110.28125 100.875 110.28125 100.875 L 108.660156 103.640625 "/>
<path style=" stroke:none;fill-rule:nonzero;fill:rgb(100%,100%,100%);fill-opacity:1;" d="M 67.085938 70.636719 L 68.234375 70.636719 L 68.234375 68.882813 L 67.085938 70.636719 "/>
<path style=" stroke:none;fill-rule:nonzero;fill:rgb(100%,100%,100%);fill-opacity:1;" d="M 59.664063 82.988281 L 61.214844 82.652344 L 60.675781 84.539063 L 59.664063 82.988281 "/>
<path style=" stroke:none;fill-rule:nonzero;fill:rgb(100%,100%,100%);fill-opacity:1;" d="M 106.5625 129.570313 C 105.519531 130.984375 103.921875 131.574219 102.984375 130.886719 C 102.054688 130.199219 102.140625 128.496094 103.183594 127.082031 C 104.226563 125.667969 105.824219 125.078125 106.757813 125.765625 C 107.691406 126.453125 107.605469 128.15625 106.5625 129.570313 "/>
<path style=" stroke:none;fill-rule:nonzero;fill:rgb(100%,100%,100%);fill-opacity:1;" d="M 94.960938 91.089844 L 100.023438 93.246094 C 100.023438 93.246094 100.5625 94.664063 99.957031 94.800781 C 99.28125 94.394531 94.960938 91.089844 94.960938 91.089844 "/>
<path style=" stroke:none;fill-rule:nonzero;fill:rgb(100%,100%,100%);fill-opacity:1;" d="M 66.945313 81.402344 L 67.308594 88.746094 C 67.378906 88.730469 67.445313 88.71875 67.515625 88.699219 L 67.238281 81.347656 C 67.140625 81.359375 67.042969 81.378906 66.945313 81.402344 "/>
<path style=" stroke:none;fill-rule:nonzero;fill:rgb(100%,100%,100%);fill-opacity:1;" d="M 66.160156 81.691406 C 64.398438 82.59375 63.429688 84.832031 63.996094 86.695313 C 64.078125 86.96875 64.195313 87.214844 64.332031 87.441406 C 65.796875 85.449219 66.550781 82.59375 66.8125 81.433594 C 66.59375 81.496094 66.375 81.578125 66.160156 81.691406 "/>
<path style=" stroke:none;fill-rule:nonzero;fill:rgb(100%,100%,100%);fill-opacity:1;" d="M 70.28125 85.992188 C 70.570313 85.164063 70.625 84.257813 70.375 83.425781 C 69.9375 81.988281 68.710938 81.203125 67.363281 81.332031 C 67.730469 82.371094 68.796875 85.058594 70.28125 85.992188 "/>
<path style=" stroke:none;fill-rule:nonzero;fill:rgb(100%,100%,100%);fill-opacity:1;" d="M 67.605469 88.671875 C 67.804688 88.613281 68.007813 88.535156 68.210938 88.433594 C 69.109375 87.96875 69.800781 87.160156 70.1875 86.226563 C 68.492188 86.382813 67.8125 88.003906 67.605469 88.671875 "/>
<path style=" stroke:none;fill-rule:nonzero;fill:rgb(100%,100%,100%);fill-opacity:1;" d="M 64.449219 87.632813 C 65.074219 88.511719 66.097656 88.9375 67.179688 88.769531 C 66.882813 88.277344 66.101563 87.355469 64.449219 87.632813 "/>
<path style=" stroke:none;fill-rule:nonzero;fill:rgb(13.699341%,12.199402%,12.5%);fill-opacity:1;" d="M 66.8125 81.433594 C 66.550781 82.59375 65.796875 85.449219 64.332031 87.441406 C 64.367188 87.507813 64.40625 87.570313 64.449219 87.632813 C 66.101563 87.355469 66.882813 88.277344 67.179688 88.769531 C 67.222656 88.761719 67.265625 88.753906 67.308594 88.746094 L 66.945313 81.402344 C 66.898438 81.414063 66.855469 81.421875 66.8125 81.433594 "/>
<path style=" stroke:none;fill-rule:nonzero;fill:rgb(13.699341%,12.199402%,12.5%);fill-opacity:1;" d="M 67.363281 81.332031 C 67.320313 81.335938 67.28125 81.339844 67.238281 81.347656 L 67.515625 88.699219 C 67.546875 88.691406 67.574219 88.683594 67.605469 88.671875 C 67.8125 88.003906 68.492188 86.382813 70.1875 86.226563 C 70.21875 86.148438 70.25 86.070313 70.28125 85.992188 C 68.796875 85.058594 67.730469 82.371094 67.363281 81.332031 "/>
<path style=" stroke:none;fill-rule:nonzero;fill:rgb(100%,100%,100%);fill-opacity:1;" d="M 46.570313 86.429688 C 46.570313 85.273438 45.632813 84.339844 44.480469 84.339844 C 44.167969 84.339844 43.875 84.410156 43.609375 84.53125 L 46.050781 87.808594 C 46.371094 87.441406 46.570313 86.960938 46.570313 86.429688 "/>
<path style=" stroke:none;fill-rule:nonzero;fill:rgb(100%,100%,100%);fill-opacity:1;" d="M 42.386719 86.429688 C 42.386719 87.585938 43.324219 88.523438 44.480469 88.523438 C 44.761719 88.523438 45.03125 88.464844 45.277344 88.363281 L 42.855469 85.113281 C 42.5625 85.472656 42.386719 85.929688 42.386719 86.429688 "/>
<path style=" stroke:none;fill-rule:nonzero;fill:rgb(100%,100%,100%);fill-opacity:1;" d="M 80.75 76.203125 C 80.929688 76.3125 81.136719 76.375 81.363281 76.375 C 82.015625 76.375 82.542969 75.847656 82.542969 75.195313 C 82.542969 74.984375 82.488281 74.789063 82.394531 74.617188 L 80.75 76.203125 "/>
<path style=" stroke:none;fill-rule:nonzero;fill:rgb(100%,100%,100%);fill-opacity:1;" d="M 81.363281 74.011719 C 80.710938 74.011719 80.179688 74.539063 80.179688 75.195313 C 80.179688 75.5 80.296875 75.777344 80.488281 75.984375 L 82.183594 74.347656 C 81.972656 74.140625 81.679688 74.011719 81.363281 74.011719 "/>
<path style=" stroke:none;fill-rule:nonzero;fill:rgb(100%,100%,100%);fill-opacity:1;" d="M 109.875 85.046875 C 109.875 84.132813 109.136719 83.394531 108.222656 83.394531 C 108.015625 83.394531 107.820313 83.433594 107.640625 83.503906 L 109.496094 86.097656 C 109.734375 85.8125 109.875 85.445313 109.875 85.046875 "/>
<path style=" stroke:none;fill-rule:nonzero;fill:rgb(100%,100%,100%);fill-opacity:1;" d="M 106.570313 85.046875 C 106.570313 85.960938 107.308594 86.699219 108.222656 86.699219 C 108.527344 86.699219 108.808594 86.617188 109.054688 86.476563 L 107.140625 83.800781 C 106.789063 84.101563 106.570313 84.550781 106.570313 85.046875 "/>
<path style=" stroke:none;fill-rule:nonzero;fill:rgb(100%,100%,100%);fill-opacity:1;" d="M 90.617188 100.660156 C 90.863281 101.109375 91.34375 101.414063 91.890625 101.414063 C 92.632813 101.414063 93.242188 100.855469 93.328125 100.136719 L 90.617188 100.660156 "/>
<path style=" stroke:none;fill-rule:nonzero;fill:rgb(100%,100%,100%);fill-opacity:1;" d="M 91.890625 98.511719 C 91.089844 98.511719 90.4375 99.160156 90.4375 99.960938 C 90.4375 100.011719 90.441406 100.054688 90.445313 100.101563 L 93.28125 99.554688 C 93.105469 98.953125 92.550781 98.511719 91.890625 98.511719 "/>
<path style=" stroke:none;fill-rule:nonzero;fill:rgb(100%,100%,100%);fill-opacity:1;" d="M 135.050781 107.046875 C 135.050781 108.109375 135.683594 108.972656 136.46875 108.972656 C 136.742188 108.972656 136.996094 108.863281 137.214844 108.683594 L 135.5 105.644531 C 135.222656 105.996094 135.050781 106.492188 135.050781 107.046875 "/>
<path style=" stroke:none;fill-rule:nonzero;fill:rgb(100%,100%,100%);fill-opacity:1;" d="M 137.882813 107.046875 C 137.882813 105.988281 137.25 105.125 136.46875 105.125 C 136.285156 105.125 136.109375 105.171875 135.949219 105.257813 L 137.605469 108.195313 C 137.777344 107.875 137.882813 107.476563 137.882813 107.046875 "/>
</g>
</svg>
