<?xml version="1.0" standalone="no"?>
<!DOCTYPE svg PUBLIC "-//W3C//DTD SVG 20010904//EN"
 "http://www.w3.org/TR/2001/REC-SVG-20010904/DTD/svg10.dtd">
<svg version="1.0" xmlns="http://www.w3.org/2000/svg"
 width="1366.000000pt" height="768.000000pt" viewBox="0 0 1366.000000 768.000000"
 preserveAspectRatio="xMidYMid meet">

<g transform="translate(0.000000,768.000000) scale(0.100000,-0.100000)"
fill="#000000" stroke="none">
<path d="M6560 6964 c-767 -68 -1486 -409 -2015 -955 -480 -497 -771 -1102
-861 -1794 -12 -92 -17 -202 -17 -375 0 -264 13 -403 59 -628 153 -745 587
-1423 1204 -1879 350 -259 766 -451 1188 -547 250 -58 373 -70 707 -70 277 -1
327 2 465 23 701 106 1350 438 1826 934 482 501 775 1118 860 1807 11 89 17
211 17 360 0 358 -45 643 -152 969 -302 913 -1000 1632 -1916 1972 -174 64
-433 130 -630 159 -122 18 -201 23 -420 25 -148 2 -290 1 -315 -1z m209 -3151
c0 -2677 -1 -2766 -18 -2717 -141 395 -773 814 -1461 968 -243 54 -314 61
-628 61 -160 0 -292 1 -292 1 0 1 24 17 52 35 87 56 275 205 410 326 133 119
256 248 401 420 643 764 1151 1882 1431 3153 38 172 96 482 96 512 0 4 2 8 5
8 3 0 5 -1245 4 -2767z m187 2437 c45 -236 128 -575 209 -850 415 -1404 1096
-2510 1930 -3134 60 -46 129 -96 152 -112 l42 -30 -234 4 c-265 5 -391 -5
-605 -48 -283 -57 -517 -138 -765 -265 -412 -211 -684 -463 -776 -720 -17 -48
-18 49 -17 2720 0 2403 2 2760 14 2695 8 -41 30 -158 50 -260z"/>
</g>
</svg>
